<svg xmlns="http://www.w3.org/2000/svg" width="60" height="60" viewBox="0 0 60 60" fill="none"><path d="M44.25 39.75L31.2492 30L44.25 20.25C44.4829 20.0754 44.6719 19.8489 44.802 19.5885C44.9322 19.3282 45 19.0411 45 18.75C45 18.4589 44.9322 18.1718 44.802 17.9115C44.6719 17.6511 44.4829 17.4247 44.25 17.25L29.25 6C28.9714 5.79107 28.6402 5.66385 28.2934 5.63258C27.9466 5.60131 27.5979 5.66723 27.2865 5.82295C26.975 5.97867 26.7131 6.21805 26.53 6.51426C26.347 6.81046 26.25 7.15179 26.25 7.5V26.25L14.25 17.25C13.8522 16.9516 13.3521 16.8235 12.8598 16.8938C12.3676 16.9642 11.9234 17.2272 11.625 17.625C11.3266 18.0228 11.1985 18.5229 11.2688 19.0152C11.3392 19.5074 11.6022 19.9516 12 20.25L25.0008 30L12 39.75C11.803 39.8977 11.6371 40.0828 11.5116 40.2947C11.3862 40.5066 11.3037 40.7411 11.2688 40.9848C11.1985 41.4771 11.3266 41.9772 11.625 42.375C11.9234 42.7728 12.3676 43.0358 12.8598 43.1062C13.3521 43.1765 13.8522 43.0484 14.25 42.75L26.25 33.75V52.5C26.25 52.8482 26.347 53.1895 26.53 53.4857C26.7131 53.782 26.975 54.0213 27.2865 54.177C27.5979 54.3328 27.9466 54.3987 28.2934 54.3674C28.6402 54.3362 28.9714 54.2089 29.25 54L44.25 42.75C44.4829 42.5753 44.6719 42.3489 44.802 42.0885C44.9322 41.8282 45 41.5411 45 41.25C45 40.9589 44.9322 40.6718 44.802 40.4115C44.6719 40.1511 44.4829 39.9247 44.25 39.75ZM30 11.25L40.0008 18.75L30 26.25V11.25ZM30 48.75V33.75L40.0008 41.25L30 48.75ZM12.1875 32.8125C11.6312 32.8125 11.0875 32.6475 10.625 32.3385C10.1624 32.0295 9.80196 31.5902 9.58909 31.0763C9.37622 30.5624 9.32052 29.9969 9.42904 29.4513C9.53756 28.9057 9.80543 28.4046 10.1988 28.0113C10.5921 27.6179 11.0932 27.3501 11.6388 27.2415C12.1844 27.133 12.7499 27.1887 13.2638 27.4016C13.7777 27.6145 14.217 27.9749 14.526 28.4375C14.8351 28.9 15 29.4437 15 30C15 30.7459 14.7037 31.4613 14.1762 31.9887C13.6488 32.5162 12.9334 32.8125 12.1875 32.8125ZM48.75 30C48.75 30.5563 48.585 31.1 48.276 31.5625C47.967 32.0251 47.5277 32.3855 47.0138 32.5984C46.4999 32.8113 45.9344 32.867 45.3888 32.7585C44.8432 32.6499 44.3421 32.3821 43.9488 31.9887C43.5554 31.5954 43.2876 31.0943 43.179 30.5487C43.0705 30.0031 43.1262 29.4376 43.3391 28.9237C43.552 28.4098 43.9124 27.9705 44.375 27.6615C44.8375 27.3524 45.3812 27.1875 45.9375 27.1875C46.6834 27.1875 47.3988 27.4838 47.9262 28.0113C48.4537 28.5387 48.75 29.2541 48.75 30Z" fill="#343330"></path></svg>