<svg xmlns="http://www.w3.org/2000/svg" width="88" height="88" viewBox="0 0 88 88" fill="none"><rect width="88" height="88" rx="44" fill="#35C75B"></rect><path d="M64.1211 43.4048L37.8711 71.5298C37.5929 71.8266 37.2257 72.025 36.8249 72.0949C36.4241 72.1647 36.0115 72.1024 35.6493 71.9171C35.287 71.7319 34.9949 71.4339 34.8169 71.0681C34.6389 70.7023 34.5847 70.2885 34.6625 69.8891L38.0984 52.7024L24.5914 47.6306C24.3013 47.522 24.0426 47.3434 23.8384 47.1105C23.6343 46.8776 23.4909 46.5978 23.4213 46.296C23.3517 45.9942 23.3579 45.6799 23.4393 45.3811C23.5208 45.0823 23.6751 44.8083 23.8883 44.5837L50.1383 16.4587C50.4164 16.1618 50.7836 15.9635 51.1844 15.8936C51.5852 15.8237 51.9978 15.8861 52.3601 16.0713C52.7223 16.2565 53.0145 16.5545 53.1925 16.9204C53.3705 17.2862 53.4247 17.7 53.3469 18.0993L49.9015 35.3048L63.4086 40.3696C63.6965 40.4788 63.9531 40.6573 64.1557 40.8893C64.3583 41.1212 64.5006 41.3995 64.5701 41.6995C64.6396 41.9996 64.6342 42.3121 64.5542 42.6095C64.4743 42.9069 64.3223 43.18 64.1117 43.4048H64.1211Z" fill="white"></path></svg>